<?xml version="1.0" encoding="utf-8"?>
<!-- Generator: Adobe Illustrator 16.0.0, SVG Export Plug-In . SVG Version: 6.00 Build 0)  -->
<!DOCTYPE svg PUBLIC "-//W3C//DTD SVG 1.1//EN" "http://www.w3.org/Graphics/SVG/1.1/DTD/svg11.dtd">
<svg version="1.1" id="Calque_1" xmlns="http://www.w3.org/2000/svg" xmlns:xlink="http://www.w3.org/1999/xlink" x="0px" y="0px"
	 width="1280px" height="640px" viewBox="0 0 1280 640" enable-background="new 0 0 1280 640" xml:space="preserve">
<g transform="translate(0.000000,640.000000) scale(0.100000,-0.100000)">
	<path fill="#023047" d="M6764.999,5123.999c-297.998-26.997-442.998-46.997-620-88.999c-129.004-31-277.002-73.999-287.998-85
		c-5-3.999,2.002-16.001,15-26.001c47.998-37.998,97.998-101.997,92.002-116.997c-3.008-8.003-47.002-39.004-97.002-68.003
		c-682.002-391.997-1344.004-831.997-1346.006-895c-0.996-11.001-16.992-36.001-36.992-55
		c-87.002-82.998-168.008-208.999-208.008-325c-53.994-153.999-55-203.999-16.992-673.999c10.996-140,27.998-345,35.996-455
		c9.004-110,17.998-205.996,20.996-214.004c4.004-10.996,46.006-12.998,252.002-6.992c136.006,2.998,389.004,7.998,562.002,10.996
		s377.998,7.002,455,10c77.002,2.002,360.996,7.002,630,10c517.998,7.002,640,14.004,754.003,45
		c142.998,40,298.994,125.996,425.996,234.004c170.996,145.996,265.996,283.994,407.002,587.998
		c135,292.998,162.002,385,155.996,537.998c-5.996,138.999-37.002,216.001-130,317.998l-35.996,40l-234.004-8.999
		c-127.998-3.999-387.998-12.998-577.998-18.999s-529.004-17.002-755-25c-225-7.998-449.004-15-495.996-15h-87.002L5630,3907.002
		c-19.004,113.999-84.004,223.999-150.996,258.999c-15,6.997-51.006,13.999-78.008,13.999c-136.992,0-325.996-127.002-455-307.002
		c-25.996-35.996-45-51.997-66.992-56.997c-51.006-10-114.004-7.002-133.008,6.997c-31.992,24.004-20.996,35,158.008,156.001
		c65.996,45,586.992,388.999,670.996,443.003c330.996,212.998,609.004,333.999,875,381.997c404.004,73.003,975,67.002,1497.002-15
		c115-17.998,115.996-18.999,58.994-201.997c-25.996-83.003-60-192.002-75.996-242.002c-52.002-162.002-120-383.999-120-392.998
		c0-5,12.002-12.002,27.998-16.001c47.002-10,146.006-157.002,177.998-266.001c31.006-105-0.996-318.999-75.996-515
		c-80-205.996-195.996-427.002-292.998-559.004c-180-242.998-455-430.996-712.002-483.994c-110-22.998,30.996-19.004-1450-47.002
		c-412.002-7.998-854.004-17.998-980-20.996c-199.004-6.006-232.002-5-242.998,7.998c-7.002,8.994-16.006,67.998-22.002,143.994
		c-15.996,227.002-39.004,525-52.002,664.004c-18.994,212.002-15.996,471.001,6.006,548.999
		C4230.996,3545,4300,3665,4412.001,3792.002l58.994,67.998l-92.998-6.001c-182.998-11.997-385,28.003-510.996,102.002l-79.004,45
		L3677.001,3990c-137.002-12.998-434.004-46.001-542.002-60c-370-46.001-408.999-51.001-690-95
		c-311.001-47.998-382.998-61.001-525-98.999c-122.002-32.002-125-33.003-127.998-62.002c-5-40-193.003-226.001-336.001-331.997
		c-161.001-119.004-355-215-528.999-261.006C835,3055.996,807.002,3055,790,3075c-17.998,22.002,15,67.998,132.002,181.001
		c56.997,53.999,95.996,95,86.997,91.997c-7.998-2.998-47.998-15-88.999-26.997C630,3240,346.001,3072.002,147.998,2865.996
		C82.002,2797.002,80,2795,80,2742.998c0-55,26.001-457.998,33.999-528.994c5-36.006,0-48.008-43.999-109.004
		c-27.998-37.002-50-70.996-50-75s27.002-20,61.001-34.004c286.001-128.994,786.001-221.992,1291.997-241.992l178.003-7.002
		l-2.002,82.002c-1.997,61.992,1.001,85,12.002,96.992c18.999,19.004,122.998,21.006,145,4.004
		c7.998-7.002,28.999-42.998,46.997-79.004c119.004-241.992,338.003-436.992,587.002-522.998c196.001-67.002,413.999-75,625-22.002
		c254.004,65,520.996,289.004,645,540c44.004,91.006,49.004,94.004,145.996,94.004c77.002,0,87.002-10,82.002-85.996l-2.998-58.008
		l75-1.992c40.996-1.006,629.004-5,1305-8.008c677.002-2.998,1755.996-8.994,2397.998-12.998l1167.998-5.996l-2.998,62.002
		c-2.002,45.996,1.006,63.994,12.002,70.996c7.998,5.996,50.996,9.004,95,7.998l79.004-2.998l45.996-80.996
		c135.996-242.002,332.998-414.004,570-496.006c207.998-70.996,457.998-75.996,664.004-10.996
		c246.992,77.002,467.998,265.996,590.996,505l39.004,75.996l135,7.002c131.992,7.002,135,7.002,152.998-15
		c10-12.002,17.998-30.996,17.998-40.996c0-30-24.004-33.008,802.998,85.996c387.997,55.996,442.001,65.996,471.005,85.996
		c55.996,42.002,267.998,272.002,286.992,314.004c21.006,45,25,119.004,8.008,162.002c-19.004,50.996-11.006,247.002,16.992,412.998
		c39.004,234.004,39.004,220.996,11.006,300c-32.002,87.002-39.004,96.001-192.998,242.998c-104.004,100-130,130-157.002,187.002
		c-20,43.999-39.004,70-52.002,72.998c-10.996,3.003-107.998,28.003-215,55c-107.001,27.002-207.001,53.003-222.001,56.001
		c-25.996,6.001-27.998,10-27.998,55v48.003l-117.002,6.997c-75,3.999-120,11.001-125,18.999
		c-3.994,6.001-7.002,31.001-5.996,54.004c0.996,23.999,0,45-2.998,46.997c-2.002,3.003-53.008-1.997-113.008-10
		c-132.998-16.997-137.998-15-135,68.003c1.006,31.997,0,60.996-3.994,63.999c-4.004,3.999-47.002-1.001-97.002-12.002
		c-90-17.998-90.996-17.998-152.998,3.003c-34.004,11.997-201.006,68.999-372.002,127.998c-170,57.998-359.004,121.001-420,140
		c-60,17.998-182.002,56.001-270,82.998c-425,132.002-834.004,246.001-1280,356.001c-482.998,120-874.004,191-1280,232.001
		C7397.997,5120,6862.997,5132.001,6764.999,5123.999z M8394.999,4700c160.996-35,587.998-153.999,810-226.001
		c297.998-96.997,545.996-207.998,617.002-275c63.994-60,50-111.997-39.004-142.998c-37.002-13.003-228.994-36.001-422.998-51.001
		c-40.996-2.998-162.998-12.002-270-20c-615.996-47.002-840-55-860-30c-14.004,16.001-12.002,47.002,20.996,443.999
		c10,128.003,19.004,243.999,19.004,257.002C8269.999,4705,8309.999,4718.999,8394.999,4700z M12449.998,3545
		c49.004-92.002,82.002-206.001,62.998-217.998c-13.994-9.004-282.998-17.002-587.997-17.002
		c-335.996-2.002-370,2.998-522.998,66.001c-137.998,56.001-161.006,96.997-60,107.998
		c198.994,23.003,373.994,43.003,657.998,76.001c179.003,21.001,347.001,37.002,374.003,37.002
		C12422,3595,12424.002,3593.999,12449.998,3545z M2876,3144.004c45-13.008,106.997-35,138.003-48.008
		c78.994-35,221.992-128.994,280-183.994c51.992-51.006,137.998-176.006,173.994-257.002c90-200,94.004-440.996,11.006-640.996
		c-76.006-182.002-223.008-361.006-362.002-440c-231.001-130-458.003-148.008-739.004-58.008
		c-123.999,40-190,81.006-288.999,179.004c-250,247.998-326.001,549.004-221.997,880c53.999,172.002,137.998,295,276.997,407.002
		c120,97.998,301.001,175,446.001,192.002C2658.999,3180.996,2796,3167.002,2876,3144.004z M10037.997,3170
		c45-5.996,117.002-22.998,160-37.998c265-94.004,461.006-304.004,547.998-587.002c25-80.996,28.008-105,27.002-230
		c0-109.004-5-157.002-20.996-217.002c-100-368.994-381.006-605.996-771.006-647.998c-61.992-5.996-123.994-7.002-175.996-0.996
		c-314.004,36.992-597.998,282.998-710.996,615.996c-24.004,70.996-27.002,95-27.002,210c0,255.996,80,467.002,242.002,637.998
		C9434.999,3045.996,9602.001,3130,9807.001,3165C9907.001,3182.002,9937.001,3182.002,10037.997,3170z M480,2790
		c82.002-15.996,155-54.004,208.999-109.004c57.002-57.998,93.003-136.992,70-151.992c-7.998-5-77.998-9.004-155-9.004H462.998
		l-5.996-30c-4.004-17.998-13.003-30-22.002-30c-22.002,0-17.998-14.004,7.998-25c16.001-7.002,25-22.998,31.001-57.002
		c12.002-62.998-2.998-97.998-41.001-98.994c-25.996,0-25.996-1.006-6.997-9.004c11.997-5,25-12.998,27.998-19.004
		c10-15.996-21.997-81.992-55-116.992c-28.999-30-111.997-64.004-125-51.006C263.999,2092.002,240,2195,240,2227.002
		c0,33.994,5,37.998,75,45.996c17.002,2.002,7.998,5-22.002,6.006c-61.997,0.996-76.997,17.998-87.998,97.998
		c-5,42.002-3.999,52.998,10,60c15,8.994,12.998,12.002-8.999,27.002c-16.001,10-26.001,25.996-26.001,40
		c0,12.998-12.998,40-30,60.996c-33.999,42.998-38.999,89.004-15,135C176.001,2780,327.002,2819.004,480,2790z"/>
	<path fill="#023047" d="M2522.001,3075c-315-69.004-507.002-252.002-589.004-562.998c-32.998-125-37.998-329.004-8.999-432.002
		c75-275,302.002-467.998,623.003-532.002c95.996-18.994,118.999-20,207.998-10.996c369.004,38.994,632.998,278.994,700,637.998
		c49.004,257.002-67.998,570-277.002,742.002C3007.001,3057.002,2737.998,3122.002,2522.001,3075z"/>
	<path fill="#023047" d="M9779.999,3075c-307.998-62.998-522.998-260.996-602.002-554.004c-15.996-60-20.996-106.992-22.002-220.996
		c-0.996-140.996,0-147.002,32.002-230c97.998-250.996,257.002-417.998,470-490.996c81.006-28.008,164.004-40,276.006-41.006
		c118.994-0.996,166.992,6.006,255.996,34.004c255.996,82.002,420.996,255.996,492.002,517.998c15,57.002,20,107.998,20.996,210
		c1.006,165-15,237.998-80.996,370c-39.004,79.004-62.002,110.996-142.002,192.002c-85,85.996-107.002,102.002-192.002,142.998
		c-130.996,62.002-227.002,85-347.002,84.004C9887.997,3089.004,9815.995,3082.002,9779.999,3075z"/>
	<path fill="#023047" d="M297.998,2452.998c17.002-2.002,47.002-2.002,65,0c17.002,2.002,3.003,4.004-32.998,4.004
		S280,2455,297.998,2452.998z"/>
	<path fill="#023047" d="M5725,4898.999c-32.998-16.001-62.998-28.999-67.998-28.999c-7.998,0-386.006-182.002-822.002-395
		c-522.002-256.001-800-391.001-872.998-425c-40-17.998-69.004-37.002-65-41.001c3.994-3.999,42.002-18.999,83.994-32.998
		c96.006-32.002,300-58.999,405-53.999l80,3.999l205,136.001C4782.998,4136.001,4922.001,4227.998,4980,4265s155,100,215,140
		c180.996,117.002,470,295,654.004,402.998c10,6.001,5.996,18.003-19.004,57.002c-17.998,27.998-35.996,52.998-39.004,57.002
		C5787.998,4925,5757.998,4915,5725,4898.999z"/>
	<path fill="#023047" d="M1510,3656.001c-90-31.001-167.002-67.002-236.001-111.001c-71.997-45-195-137.002-190-142.002
		c2.002-1.997,45,25,97.002,60c101.997,70,285,165,366.997,192.002c29.004,10,52.002,18.999,52.002,21.001
		C1600,3683.999,1572.998,3677.998,1510,3656.001z"/>
</g>
</svg>
